<?xml version="1.0" standalone="yes"?>

<svg version="1.1" viewBox="0.0 0.0 135.17060367454067 137.36482939632546" fill="none" stroke="none" stroke-linecap="square" stroke-miterlimit="10" xmlns="http://www.w3.org/2000/svg" xmlns:xlink="http://www.w3.org/1999/xlink"><clipPath id="p.0"><path d="m0 0l135.17061 0l0 137.36482l-135.17061 0l0 -137.36482z" clip-rule="nonzero"></path></clipPath><g clip-path="url(#p.0)"><path fill="#000000" fill-opacity="0.0" d="m0 0l135.17061 0l0 137.36482l-135.17061 0z" fill-rule="evenodd"></path><path fill="#000000" fill-opacity="0.0" d="m42.939632 49.060368l0 0c-9.83535 0 -18.90346 4.103409 -23.711647 10.729748c-4.8081865 6.626343 -4.6062927 14.741798 0.52791977 21.220612c5.1342106 6.4788055 14.399719 10.310173 24.22781 10.018402l-1.0440826 -20.976639z" fill-rule="evenodd"></path><path fill="#000000" fill-opacity="0.0" d="m42.939632 49.060368l0 0c-9.83535 0 -18.90346 4.103409 -23.711647 10.729748c-4.8081865 6.626343 -4.6062927 14.741798 0.52791977 21.220612c5.1342106 6.4788055 14.399719 10.310173 24.22781 10.018402" fill-rule="evenodd"></path><path stroke="#ffffff" stroke-width="12.0" stroke-linejoin="round" stroke-linecap="butt" d="m42.939632 49.060368l0 0c-9.83535 0 -18.90346 4.103409 -23.711647 10.729748c-4.8081865 6.626343 -4.6062927 14.741798 0.52791977 21.220612c5.1342106 6.4788055 14.399719 10.310173 24.22781 10.018402" fill-rule="evenodd"></path><path fill="#000000" fill-opacity="0.0" d="m42.727036 7.5879264c0.5498657 0.37795305 3.157917 0.6601052 3.2992096 2.267717c0.14129639 1.6076117 -2.6347313 5.6469812 -2.4514427 7.3779516c0.18328857 1.7309723 2.95932 2.5065632 3.5511818 3.0078754" fill-rule="evenodd"></path><path stroke="#ffffff" stroke-width="2.0" stroke-linejoin="round" stroke-linecap="butt" d="m42.727036 7.5879264c0.5498657 0.37795305 3.157917 0.6601052 3.2992096 2.267717c0.14129639 1.6076117 -2.6347313 5.6469812 -2.4514427 7.3779516c0.18328857 1.7309723 2.95932 2.5065632 3.5511818 3.0078754" fill-rule="evenodd"></path><path fill="#000000" fill-opacity="0.0" d="m58.727036 7.5879264c0.5498657 0.37795305 3.157917 0.6601052 3.2992096 2.267717c0.14129639 1.6076117 -2.6347313 5.6469812 -2.4514427 7.3779516c0.18328857 1.7309723 2.95932 2.5065632 3.5511818 3.0078754" fill-rule="evenodd"></path><path stroke="#ffffff" stroke-width="2.0" stroke-linejoin="round" stroke-linecap="butt" d="m58.727036 7.5879264c0.5498657 0.37795305 3.157917 0.6601052 3.2992096 2.267717c0.14129639 1.6076117 -2.6347313 5.6469812 -2.4514427 7.3779516c0.18328857 1.7309723 2.95932 2.5065632 3.5511818 3.0078754" fill-rule="evenodd"></path><path fill="#000000" fill-opacity="0.0" d="m74.727036 7.5879264c0.5498657 0.37795305 3.1579132 0.6601052 3.2992096 2.267717c0.14129639 1.6076117 -2.634735 5.6469812 -2.451439 7.3779516c0.18328857 1.7309723 2.9593124 2.5065632 3.551178 3.0078754" fill-rule="evenodd"></path><path stroke="#ffffff" stroke-width="2.0" stroke-linejoin="round" stroke-linecap="butt" d="m74.727036 7.5879264c0.5498657 0.37795305 3.1579132 0.6601052 3.2992096 2.267717c0.14129639 1.6076117 -2.634735 5.6469812 -2.451439 7.3779516c0.18328857 1.7309723 2.9593124 2.5065632 3.551178 3.0078754" fill-rule="evenodd"></path><path fill="#000000" fill-opacity="0.0" d="m90.727036 7.5879264c0.5498657 0.37795305 3.1579132 0.6601052 3.2992096 2.267717c0.14129639 1.6076117 -2.634735 5.6469812 -2.451439 7.3779516c0.18328857 1.7309723 2.9593124 2.5065632 3.551178 3.0078754" fill-rule="evenodd"></path><path stroke="#ffffff" stroke-width="2.0" stroke-linejoin="round" stroke-linecap="butt" d="m90.727036 7.5879264c0.5498657 0.37795305 3.1579132 0.6601052 3.2992096 2.267717c0.14129639 1.6076117 -2.634735 5.6469812 -2.451439 7.3779516c0.18328857 1.7309723 2.9593124 2.5065632 3.551178 3.0078754" fill-rule="evenodd"></path><path fill="#000000" fill-opacity="0.0" d="m15.826772 -17.593176l96.18897 0l0 170.29921l-96.18897 0z" fill-rule="evenodd"></path><path fill="#ffffff" d="m35.092396 127.086815l0 -100.9375l74.828125 0l0 17.078127l-54.45313 0l0 22.374996l50.67188 0l0 17.015625l-50.67188 0l0 27.46875l56.39063 0l0 17.0l-76.765625 0z" fill-rule="nonzero"></path></g></svg>

