<?xml version="1.0" standalone="yes"?>

<svg version="1.1" viewBox="0.0 0.0 687.2650918635171 145.58267716535434" fill="none" stroke="none" stroke-linecap="square" stroke-miterlimit="10" xmlns="http://www.w3.org/2000/svg" xmlns:xlink="http://www.w3.org/1999/xlink"><clipPath id="p.0"><path d="m0 0l687.2651 0l0 145.58267l-687.2651 0l0 -145.58267z" clip-rule="nonzero"></path></clipPath><g clip-path="url(#p.0)"><path fill="#000000" fill-opacity="0.0" d="m0 0l687.2651 0l0 145.58267l-687.2651 0z" fill-rule="evenodd"></path><path fill="#000000" fill-opacity="0.0" d="m50.939632 49.060368l0 0c-9.83535 0 -18.903461 4.103409 -23.711647 10.729748c-4.8081856 6.626343 -4.6062927 14.741798 0.52791977 21.220612c5.1342125 6.4788055 14.399719 10.310173 24.22781 10.018402l-1.0440826 -20.976639z" fill-rule="evenodd"></path><path fill="#000000" fill-opacity="0.0" d="m50.939632 49.060368l0 0c-9.83535 0 -18.903461 4.103409 -23.711647 10.729748c-4.8081856 6.626343 -4.6062927 14.741798 0.52791977 21.220612c5.1342125 6.4788055 14.399719 10.310173 24.22781 10.018402" fill-rule="evenodd"></path><path stroke="#000000" stroke-width="12.0" stroke-linejoin="round" stroke-linecap="butt" d="m50.939632 49.060368l0 0c-9.83535 0 -18.903461 4.103409 -23.711647 10.729748c-4.8081856 6.626343 -4.6062927 14.741798 0.52791977 21.220612c5.1342125 6.4788055 14.399719 10.310173 24.22781 10.018402" fill-rule="evenodd"></path><path fill="#000000" fill-opacity="0.0" d="m132.40187 56.69338l68.306656 68.30664" fill-rule="evenodd"></path><path stroke="#000000" stroke-width="16.0" stroke-linejoin="round" stroke-linecap="butt" d="m132.40187 56.69338l68.306656 68.30664" fill-rule="evenodd"></path><path fill="#000000" fill-opacity="0.0" d="m200.70853 56.69338l-66.49486 66.49486" fill-rule="evenodd"></path><path stroke="#000000" stroke-width="16.0" stroke-linejoin="round" stroke-linecap="butt" d="m200.70853 56.69338l-66.49486 66.49486" fill-rule="evenodd"></path><path fill="#000000" fill-opacity="0.0" d="m196.71391 8.818897l564.6929 0l0 157.60631l-564.6929 0z" fill-rule="evenodd"></path><path fill="#000000" d="m214.22954 130.4589l0 -83.75l27.140625 0q15.42186 0 20.10936 1.25q7.1875 1.890625 12.046875 8.203125q4.859375 6.3125 4.859375 16.312504q0 7.703125 -2.8125 12.96875q-2.796875 5.25 -7.109375 8.25q-4.3125 3.0 -8.765625 3.96875q-6.0468597 1.203125 -17.531235 1.203125l-11.03125 0l0 31.593742l-16.90625 0zm16.90625 -69.578125l0 23.765629l9.25 0q10.0 0 13.375 -1.3125q3.3749847 -1.328125 5.2812347 -4.125q1.921875 -2.796875 1.921875 -6.5q0 -4.578125 -2.6875 -7.546875q-2.6874847 -2.9687538 -6.7968597 -3.7187538q-3.03125 -0.5625 -12.171875 -0.5625l-8.171875 0zm61.397568 69.578125l0 -83.75l35.59375 0q13.4375 0 19.515625 2.265625q6.078125 2.25 9.734375 8.015625q3.65625 5.765625 3.65625 13.203129q0 9.421875 -5.546875 15.5625q-5.53125 6.140625 -16.5625 7.734375q5.484375 3.203125 9.046875 7.03125q3.578125 3.828125 9.640625 13.59375l10.21875 16.343742l-20.21875 0l-12.21875 -18.218742q-6.515625 -9.78125 -8.921875 -12.3125q-2.390625 -2.546875 -5.078125 -3.484375q-2.6875 -0.953125 -8.515625 -0.953125l-3.421875 0l0 34.968742l-16.921875 0zm16.921875 -48.328117l12.5 0q12.171875 0 15.203125 -1.03125q3.03125 -1.03125 4.734375 -3.546875q1.71875 -2.515625 1.71875 -6.28125q0 -4.21875 -2.265625 -6.8125q-2.25 -2.6093788 -6.359375 -3.2968788q-2.0625 -0.28125 -12.34375 -0.28125l-13.1875 0l0 21.250004zm67.76187 48.328117l0 -83.75l62.09375 0l0 14.171875l-45.1875 0l0 18.562504l42.046875 0l0 14.109375l-42.046875 0l0 22.796875l46.796875 0l0 14.109367l-63.703125 0zm73.97568 -27.249992l16.453125 -1.59375q1.484375 8.28125 6.015625 12.171875q4.546875 3.875 12.265625 3.875q8.15625 0 12.296875 -3.453125q4.15625 -3.453125 4.15625 -8.09375q0 -2.96875 -1.75 -5.046875q-1.734375 -2.09375 -6.078125 -3.625q-2.96875 -1.03125 -13.546875 -3.65625q-13.59375 -3.375 -19.078125 -8.28125q-7.71875 -6.921875 -7.71875 -16.859375q0 -6.406254 3.625 -11.968754q3.640625 -5.578125 10.46875 -8.484375q6.828125 -2.90625 16.46875 -2.90625q15.78125 0 23.75 6.90625q7.9687805 6.90625 8.3594055 18.453129l-16.90628 0.734375q-1.078125 -6.453125 -4.65625 -9.281254q-3.5625 -2.828125 -10.71875 -2.828125q-7.359375 0 -11.53125 3.03125q-2.6875 1.9375038 -2.6875 5.203129q0 2.96875 2.515625 5.078125q3.203125 2.6875 15.53125 5.609375q12.34375 2.90625 18.25 6.03125q5.9219055 3.109375 9.2656555 8.515625q3.34375 5.390625 3.34375 13.328125q0 7.1875 -4.0 13.484375q-4.0000305 6.28125 -11.3125305 9.343742q-7.3125 3.046875 -18.21875 3.046875q-15.890625 0 -24.40625 -7.3437424q-8.5 -7.34375 -10.15625 -21.390625zm78.25699 0l16.453125 -1.59375q1.484375 8.28125 6.015625 12.171875q4.546875 3.875 12.265625 3.875q8.15625 0 12.296875 -3.453125q4.15625 -3.453125 4.15625 -8.09375q0 -2.96875 -1.75 -5.046875q-1.734375 -2.09375 -6.078125 -3.625q-2.96875 -1.03125 -13.546875 -3.65625q-13.59375 -3.375 -19.078125 -8.28125q-7.71875 -6.921875 -7.71875 -16.859375q0 -6.406254 3.625 -11.968754q3.640625 -5.578125 10.46875 -8.484375q6.828125 -2.90625 16.46875 -2.90625q15.78125 0 23.75 6.90625q7.96875 6.90625 8.359375 18.453129l-16.90625 0.734375q-1.078125 -6.453125 -4.65625 -9.281254q-3.5625 -2.828125 -10.71875 -2.828125q-7.359375 0 -11.53125 3.03125q-2.6875 1.9375038 -2.6875 5.203129q0 2.96875 2.515625 5.078125q3.203125 2.6875 15.53125 5.609375q12.34375 2.90625 18.25 6.03125q5.921875 3.109375 9.265625 8.515625q3.34375 5.390625 3.34375 13.328125q0 7.1875 -4.0 13.484375q-4.0 6.28125 -11.3125 9.343742q-7.3125 3.046875 -18.21875 3.046875q-15.890625 0 -24.40625 -7.3437424q-8.5 -7.34375 -10.15625 -21.390625zm79.10071 -14.109375q0 -12.796875 3.828125 -21.484375q2.859375 -6.390629 7.796875 -11.468754q4.953125 -5.09375 10.828125 -7.546875q7.828125 -3.3125 18.0625 -3.3125q18.5 0 29.609375 11.484375q11.125 11.468754 11.125 31.921879q0 20.28125 -11.03125 31.734375q-11.03125 11.453117 -29.484375 11.453117q-18.671875 0 -29.703125 -11.390617q-11.03125 -11.390625 -11.03125 -31.390625zm17.4375 -0.578125q0 14.234375 6.5625 21.578125q6.578125 7.328125 16.6875 7.328125q10.109375 0 16.59375 -7.28125q6.484375 -7.28125 6.484375 -21.84375q0 -14.40625 -6.3125 -21.484375q-6.3125 -7.078129 -16.765625 -7.078129q-10.453125 0 -16.859375 7.171879q-6.390625 7.15625 -6.390625 21.609375z" fill-rule="nonzero"></path><path fill="#000000" fill-opacity="0.0" d="m50.727036 7.5879264c0.5498657 0.37795305 3.157917 0.6601052 3.2992096 2.267717c0.14129639 1.6076117 -2.6347313 5.6469812 -2.4514427 7.3779516c0.18328857 1.7309723 2.95932 2.5065632 3.5511818 3.0078754" fill-rule="evenodd"></path><path stroke="#000000" stroke-width="2.0" stroke-linejoin="round" stroke-linecap="butt" d="m50.727036 7.5879264c0.5498657 0.37795305 3.157917 0.6601052 3.2992096 2.267717c0.14129639 1.6076117 -2.6347313 5.6469812 -2.4514427 7.3779516c0.18328857 1.7309723 2.95932 2.5065632 3.5511818 3.0078754" fill-rule="evenodd"></path><path fill="#000000" fill-opacity="0.0" d="m66.727036 7.5879264c0.5498657 0.37795305 3.1579132 0.6601052 3.2992096 2.267717c0.14129639 1.6076117 -2.634735 5.6469812 -2.451439 7.3779516c0.18328857 1.7309723 2.9593124 2.5065632 3.551178 3.0078754" fill-rule="evenodd"></path><path stroke="#000000" stroke-width="2.0" stroke-linejoin="round" stroke-linecap="butt" d="m66.727036 7.5879264c0.5498657 0.37795305 3.1579132 0.6601052 3.2992096 2.267717c0.14129639 1.6076117 -2.634735 5.6469812 -2.451439 7.3779516c0.18328857 1.7309723 2.9593124 2.5065632 3.551178 3.0078754" fill-rule="evenodd"></path><path fill="#000000" fill-opacity="0.0" d="m82.727036 7.5879264c0.5498657 0.37795305 3.1579132 0.6601052 3.2992096 2.267717c0.14129639 1.6076117 -2.634735 5.6469812 -2.451439 7.3779516c0.18328857 1.7309723 2.9593124 2.5065632 3.551178 3.0078754" fill-rule="evenodd"></path><path stroke="#000000" stroke-width="2.0" stroke-linejoin="round" stroke-linecap="butt" d="m82.727036 7.5879264c0.5498657 0.37795305 3.1579132 0.6601052 3.2992096 2.267717c0.14129639 1.6076117 -2.634735 5.6469812 -2.451439 7.3779516c0.18328857 1.7309723 2.9593124 2.5065632 3.551178 3.0078754" fill-rule="evenodd"></path><path fill="#000000" fill-opacity="0.0" d="m98.727036 7.5879264c0.5498657 0.37795305 3.1579132 0.6601052 3.2992096 2.267717c0.14129639 1.6076117 -2.634735 5.6469812 -2.451439 7.3779516c0.18328857 1.7309723 2.9593124 2.5065632 3.551178 3.0078754" fill-rule="evenodd"></path><path stroke="#000000" stroke-width="2.0" stroke-linejoin="round" stroke-linecap="butt" d="m98.727036 7.5879264c0.5498657 0.37795305 3.1579132 0.6601052 3.2992096 2.267717c0.14129639 1.6076117 -2.634735 5.6469812 -2.451439 7.3779516c0.18328857 1.7309723 2.9593124 2.5065632 3.551178 3.0078754" fill-rule="evenodd"></path><path fill="#000000" fill-opacity="0.0" d="m23.82677 -17.593176l96.18898 0l0 170.29921l-96.18898 0z" fill-rule="evenodd"></path><path fill="#000000" d="m43.092396 127.086815l0 -100.9375l74.828125 0l0 17.078127l-54.45313 0l0 22.374996l50.67188 0l0 17.015625l-50.67188 0l0 27.46875l56.39063 0l0 17.0l-76.765625 0z" fill-rule="nonzero"></path></g></svg>

